<svg width="553" height="220" viewBox="0 0 553 220" fill="none" xmlns="http://www.w3.org/2000/svg">
<path d="M12.2 199.146L12.2 183.542C12.2 178.215 13.4533 174.33 15.96 171.886C18.404 169.442 22.1953 168.22 27.334 168.22H29.966C33.35 168.22 36.1073 168.784 38.238 169.912C40.3687 170.977 41.904 172.638 42.844 174.894H43.032C44.7867 169.755 49.3613 167.186 56.756 167.186H62.396C67.472 167.186 71.3573 168.533 74.052 171.228C76.684 173.86 78 177.745 78 182.884V199.146H12.2ZM38.99 184.764C38.99 182.696 38.4573 181.161 37.392 180.158C36.3267 179.093 34.5407 178.56 32.034 178.56H28.368C25.9867 178.56 24.2633 178.999 23.198 179.876C22.1327 180.691 21.6 182.007 21.6 183.824V188.806H38.99V184.764ZM68.6 182.884C68.6 181.067 68.13 179.719 67.19 178.842C66.1873 177.965 64.4953 177.526 62.114 177.526H56.38C53.372 177.526 51.304 178.059 50.176 179.124C48.9853 180.127 48.39 181.819 48.39 184.2V188.806H68.6V182.884ZM12.2 161.142L12.2 150.802H78V161.142H12.2ZM78.94 128.112C78.94 133.188 77.4987 137.073 74.616 139.768C71.7333 142.463 67.66 143.81 62.396 143.81H27.804C22.54 143.81 18.4667 142.463 15.584 139.768C12.7013 137.073 11.26 133.188 11.26 128.112C11.26 123.036 12.7013 119.151 15.584 116.456C18.4667 113.761 22.54 112.414 27.804 112.414L62.396 112.414C67.66 112.414 71.7333 113.761 74.616 116.456C77.4987 119.151 78.94 123.036 78.94 128.112ZM69.54 128.112C69.54 124.54 67.378 122.754 63.054 122.754L27.146 122.754C22.822 122.754 20.66 124.54 20.66 128.112C20.66 131.684 22.822 133.47 27.146 133.47H63.054C67.378 133.47 69.54 131.684 69.54 128.112ZM12.2 105.421L12.2 95.0814L68.6 95.0814V78.0674H78V105.421L12.2 105.421ZM12.2 64.7517L12.2 50.7457L78 40.0297V50.3697L64.934 52.2497H65.122V63.9997L78 65.8797V75.4677L12.2 64.7517ZM56.192 53.4717L23.668 58.0777V58.2657L56.192 62.7777V53.4717ZM12.2 35.0132L12.2 19.4092C12.2 14.0825 13.4533 10.1972 15.96 7.75318C18.404 5.30919 22.1953 4.08719 27.334 4.08719H29.966C33.35 4.08719 36.1073 4.65119 38.238 5.77918C40.3687 6.84452 41.904 8.50519 42.844 10.7612H43.032C44.7867 5.62252 49.3613 3.05319 56.756 3.05319H62.396C67.472 3.05319 71.3573 4.40052 74.052 7.09518C76.684 9.72719 78 13.6125 78 18.7512V35.0132H12.2ZM38.99 20.6312C38.99 18.5632 38.4573 17.0279 37.392 16.0252C36.3267 14.9599 34.5407 14.4272 32.034 14.4272H28.368C25.9867 14.4272 24.2633 14.8659 23.198 15.7432C22.1327 16.5579 21.6 17.8739 21.6 19.6912V24.6732H38.99V20.6312ZM68.6 18.7512C68.6 16.9339 68.13 15.5865 67.19 14.7092C66.1873 13.8319 64.4953 13.3932 62.114 13.3932H56.38C53.372 13.3932 51.304 13.9259 50.176 14.9912C48.9853 15.9939 48.39 17.6859 48.39 20.0672V24.6732H68.6V18.7512Z" fill="#ED6E31"/>
<path d="M101.248 3.39999H121.344L130.304 67.528H130.56L139.52 3.39999H159.616V93H146.304V25.16H146.048L135.808 93H124.032L113.792 25.16H113.536V93H101.248V3.39999ZM170.123 3.39999H184.203V93H170.123V3.39999ZM214.588 94.28C207.847 94.28 202.684 92.36 199.1 88.52C195.601 84.68 193.852 79.2613 193.852 72.264V24.136C193.852 17.1387 195.601 11.72 199.1 7.88C202.684 4.04 207.847 2.12 214.588 2.12C221.329 2.12 226.449 4.04 229.948 7.88C233.532 11.72 235.324 17.1387 235.324 24.136V33.608H222.012V23.24C222.012 17.6933 219.665 14.92 214.972 14.92C210.279 14.92 207.932 17.6933 207.932 23.24V73.288C207.932 78.7493 210.279 81.48 214.972 81.48C219.665 81.48 222.012 78.7493 222.012 73.288V59.592H235.324V72.264C235.324 79.2613 233.532 84.68 229.948 88.52C226.449 92.36 221.329 94.28 214.588 94.28ZM243.748 3.39999H264.612C271.865 3.39999 277.156 5.10666 280.484 8.52C283.812 11.848 285.476 17.0107 285.476 24.008V29.512C285.476 38.8133 282.404 44.7013 276.26 47.176V47.432C279.673 48.456 282.063 50.5467 283.428 53.704C284.879 56.8613 285.604 61.0853 285.604 66.376V82.12C285.604 84.68 285.689 86.7707 285.86 88.392C286.031 89.928 286.457 91.464 287.14 93H272.804C272.292 91.5493 271.951 90.184 271.78 88.904C271.609 87.624 271.524 85.32 271.524 81.992V65.608C271.524 61.512 270.841 58.6533 269.476 57.032C268.196 55.4107 265.935 54.6 262.692 54.6H257.828V93H243.748V3.39999ZM262.948 41.8C265.764 41.8 267.855 41.0747 269.22 39.624C270.671 38.1733 271.396 35.7413 271.396 32.328V25.416C271.396 22.1733 270.799 19.8267 269.604 18.376C268.495 16.9253 266.703 16.2 264.228 16.2H257.828V41.8H262.948ZM315.725 94.28C308.813 94.28 303.522 92.3173 299.853 88.392C296.184 84.4667 294.349 78.92 294.349 71.752V24.648C294.349 17.48 296.184 11.9333 299.853 8.008C303.522 4.08266 308.813 2.12 315.725 2.12C322.637 2.12 327.928 4.08266 331.597 8.008C335.266 11.9333 337.101 17.48 337.101 24.648V71.752C337.101 78.92 335.266 84.4667 331.597 88.392C327.928 92.3173 322.637 94.28 315.725 94.28ZM315.725 81.48C320.589 81.48 323.021 78.536 323.021 72.648V23.752C323.021 17.864 320.589 14.92 315.725 14.92C310.861 14.92 308.429 17.864 308.429 23.752V72.648C308.429 78.536 310.861 81.48 315.725 81.48ZM346.623 3.39999H367.871C375.124 3.39999 380.415 5.10666 383.743 8.52C387.071 11.848 388.735 17.0107 388.735 24.008V27.592C388.735 32.2 387.967 35.9547 386.431 38.856C384.98 41.7573 382.719 43.848 379.647 45.128V45.384C386.644 47.7733 390.143 54.0027 390.143 64.072V71.752C390.143 78.664 388.308 83.9547 384.639 87.624C381.055 91.208 375.764 93 368.767 93H346.623V3.39999ZM366.207 39.88C369.023 39.88 371.114 39.1547 372.479 37.704C373.93 36.2533 374.655 33.8213 374.655 30.408V25.416C374.655 22.1733 374.058 19.8267 372.863 18.376C371.754 16.9253 369.962 16.2 367.487 16.2H360.703V39.88H366.207ZM368.767 80.2C371.242 80.2 373.076 79.56 374.271 78.28C375.466 76.9147 376.063 74.6107 376.063 71.368V63.56C376.063 59.464 375.338 56.648 373.887 55.112C372.522 53.4907 370.218 52.68 366.975 52.68H360.703V80.2H368.767ZM398.373 3.39999H412.453V93H398.373V3.39999ZM433.878 3.39999H452.95L467.542 93H453.462L450.902 75.208V75.464H434.902L432.342 93H419.286L433.878 3.39999ZM449.238 63.304L442.966 19.016H442.71L436.566 63.304H449.238ZM474.373 3.39999H488.453V80.2H511.621V93H474.373V3.39999ZM101.248 113.4H122.496C129.749 113.4 135.04 115.107 138.368 118.52C141.696 121.848 143.36 127.011 143.36 134.008V137.592C143.36 142.2 142.592 145.955 141.056 148.856C139.605 151.757 137.344 153.848 134.272 155.128V155.384C141.269 157.773 144.768 164.003 144.768 174.072V181.752C144.768 188.664 142.933 193.955 139.264 197.624C135.68 201.208 130.389 203 123.392 203H101.248V113.4ZM120.832 149.88C123.648 149.88 125.739 149.155 127.104 147.704C128.555 146.253 129.28 143.821 129.28 140.408V135.416C129.28 132.173 128.683 129.827 127.488 128.376C126.379 126.925 124.587 126.2 122.112 126.2H115.328V149.88H120.832ZM123.392 190.2C125.867 190.2 127.701 189.56 128.896 188.28C130.091 186.915 130.688 184.611 130.688 181.368V173.56C130.688 169.464 129.963 166.648 128.512 165.112C127.147 163.491 124.843 162.68 121.6 162.68H115.328V190.2H123.392ZM152.998 113.4H167.078V203H152.998V113.4ZM197.975 204.28C191.063 204.28 185.772 202.317 182.103 198.392C178.434 194.467 176.599 188.92 176.599 181.752V134.648C176.599 127.48 178.434 121.933 182.103 118.008C185.772 114.083 191.063 112.12 197.975 112.12C204.887 112.12 210.178 114.083 213.847 118.008C217.516 121.933 219.351 127.48 219.351 134.648V181.752C219.351 188.92 217.516 194.467 213.847 198.392C210.178 202.317 204.887 204.28 197.975 204.28ZM197.975 191.48C202.839 191.48 205.271 188.536 205.271 182.648V133.752C205.271 127.864 202.839 124.92 197.975 124.92C193.111 124.92 190.679 127.864 190.679 133.752V182.648C190.679 188.536 193.111 191.48 197.975 191.48ZM228.873 113.4H242.953V190.2H266.121V203H228.873V113.4ZM292.725 204.28C285.813 204.28 280.522 202.317 276.853 198.392C273.184 194.467 271.349 188.92 271.349 181.752V134.648C271.349 127.48 273.184 121.933 276.853 118.008C280.522 114.083 285.813 112.12 292.725 112.12C299.637 112.12 304.928 114.083 308.597 118.008C312.266 121.933 314.101 127.48 314.101 134.648V181.752C314.101 188.92 312.266 194.467 308.597 198.392C304.928 202.317 299.637 204.28 292.725 204.28ZM292.725 191.48C297.589 191.48 300.021 188.536 300.021 182.648V133.752C300.021 127.864 297.589 124.92 292.725 124.92C287.861 124.92 285.429 127.864 285.429 133.752V182.648C285.429 188.536 287.861 191.48 292.725 191.48ZM343.591 204.28C336.764 204.28 331.559 202.36 327.975 198.52C324.391 194.595 322.599 189.005 322.599 181.752V134.648C322.599 127.395 324.391 121.848 327.975 118.008C331.559 114.083 336.764 112.12 343.591 112.12C350.418 112.12 355.623 114.083 359.207 118.008C362.791 121.848 364.583 127.395 364.583 134.648V142.328H351.271V133.752C351.271 127.864 348.839 124.92 343.975 124.92C339.111 124.92 336.679 127.864 336.679 133.752V182.776C336.679 188.579 339.111 191.48 343.975 191.48C348.839 191.48 351.271 188.579 351.271 182.776V165.24H344.231V152.44H364.583V181.752C364.583 189.005 362.791 194.595 359.207 198.52C355.623 202.36 350.418 204.28 343.591 204.28ZM384.676 164.856L367.652 113.4H382.628L392.228 146.296H392.484L402.084 113.4H415.78L398.756 164.856V203H384.676V164.856Z" fill="#20694A"/>
</svg>
